<?xml version="1.0" standalone="no"?><!DOCTYPE svg PUBLIC "-//W3C//DTD SVG 1.1//EN" "http://www.w3.org/Graphics/SVG/1.1/DTD/svg11.dtd"><svg class="icon" height="512" viewBox="0 0 1024 1024" version="1.1" xmlns="http://www.w3.org/2000/svg"><path d="M151.452 248.65l93.44 29.27v159.882s2.08-0.864 5.918-2.368c-3.839 17.946-5.918 36.532-5.918 55.597 0 147.086 119.575 266.309 267.076 266.309 147.47 0 267.076-119.255 267.076-266.309 0-19.13-2.047-37.779-5.95-55.725 3.839 1.568 5.95 2.496 5.95 2.496V274.786L992.7 211.03 499.429 38.355 31.268 211.063l86.37 27.031H98.063v199.708H84.691V586.87h26.71V477.756h26.68V586.87h26.71V437.802h-13.34V248.65z m145.262 171.078c27.798-8.573 65.29-18.362 107.739-25.464 0.352 1.28 0.32 2.304 0.736 3.615 33.332 106.364 267.076 66.57 267.076 66.57-59.372-24.792-79.173-52.783-85.89-75.559 56.716 6.462 106.043 19.13 140.56 30.006 7.676 22.68 12.091 46.896 12.091 72.167 0 125.013-101.661 226.322-227.026 226.322-125.365 0-226.994-101.309-226.994-226.322 0-24.951 4.223-48.911 11.708-71.335z m321.553 366.53c0.096 1.503 0.544 2.879 0.544 4.382 0 47.792-47.791 86.53-106.811 86.53-58.988 0-106.811-38.738-106.811-86.53 0-1.503 0.448-2.879 0.544-4.35-119.447 35.124-212.823 126.708-225.875 237.358h664.284c-13.084-110.65-106.428-202.234-225.875-237.39z" /></svg>