<?xml version="1.0" encoding="utf-8"?>
<!-- Svg Vector Icons : http://www.onlinewebfonts.com/icon -->
<!DOCTYPE svg PUBLIC "-//W3C//DTD SVG 1.1//EN" "http://www.w3.org/Graphics/SVG/1.1/DTD/svg11.dtd">
<svg version="1.1" xmlns="http://www.w3.org/2000/svg" xmlns:xlink="http://www.w3.org/1999/xlink" x="0px" y="0px" viewBox="0 0 1000 1000" enable-background="new 0 0 1000 1000" xml:space="preserve">
<metadata> Svg Vector Icons : http://www.onlinewebfonts.com/icon </metadata>
<g><path d="M139.2,325l28.4-10.8l205.2,536.4l-28.4,10.8L139.2,325z"/><path d="M359.7,891.8l28.3-10.8l38,98.2L397.6,990L359.7,891.8z"/><path d="M586.6,523.7c-27.9,18.9-31.4,51.4-38,60.5c-11.1,15.1-89.3,14.8-98.8,0c-4.6-7.1-10.2-49.2-30.4-60.5C399.2,512.4,275,553.9,275,553.9l106.4,249.3c0,0,36.8,151.1,114,151.1s104.5-58.6,174.8-151.1c70.3-92.6,180.5-70.5,205.2-136C900.2,601.8,614.5,504.8,586.6,523.7z M503,780.5c-8.9-47.2-45-147.3-53.2-173.8c24,9.4,75.3,10.7,98.8,0C544.8,623.1,508.1,733.3,503,780.5z"/><path d="M214.2,584.1l76,181.3c0,0-166-67.4-167.2-105.8C121.8,621.2,214.2,584.1,214.2,584.1z"/><path d="M685.5,281.9c-10.6-25.7-30.4-7.5-30.4-7.5s-10.6-96.7-53.2-98.2c-42.6-1.5-53.2,42.3-98.8,45.3c-45.7,3.1-73-52.9-114.1-45.2c-41.1,7.5-45.6,98.2-45.6,98.2s-25.9-19.7-30.4,15.1c-4.5,34.7,38,83.1,38,83.1s10.6,151.1,144.4,151.1c133.8,0,152-151.1,152-151.1S696.1,307.6,685.5,281.9z M639.8,319.7c0,20.9-17,37.8-38,37.8h-45.6c-18.3,0-32.9-13.1-36.5-30.2h-41.1c-3.6,17.2-18.2,30.2-36.5,30.2h-45.6c-21,0-38-16.9-38-37.8v-7.5c0-20.9,17-37.8,38-37.8h45.6c21,0,38,16.9,38,37.8h38c0-20.9,17-37.8,38-37.8h45.6c21,0,38,16.9,38,37.8v7.5H639.8z"/><path d="M324.7,481.9c-68.1-56.2-96.5-241.7-48.5-337.1c10-19.7,55.5-119.2,153.7-128.4c98.2-9.2,101.7-10.3,169.8,8c68.1,18.3,112,112.4,121.3,144.4c9.2,32.1,21.9,112.4,16.2,144.4c-5.8,32.1-32.3,112.4-32.3,112.4s-26.6,59.6-40.4,64.2c-9.2,13.7-24.2-16-24.2-16l8.1-40.1l16.2-62.6c0,0,17.3-11.9,24.2-25.7c6.9-13.7,16.2-39,16.2-48.1s3.4-28.7,0-40.1s-32.3-8-32.3-8s-21.9-95.1-64.7-96.3C565,151.7,520,201,494.5,201c-25.4,0-68.1-47-113.2-48.1c-45-1.1-52,63-56.6,96.3c-37.2-8-64.5,41.1,0,122c15,29.8-2.3,40.8,32.3,94.7C341,486.5,337.4,495.7,324.7,481.9z"/></g>
</svg>